<svg xmlns="http://www.w3.org/2000/svg" width="55.426" height="48.000" viewBox="0 0 55.426 48.000">
<rect width="100%" height="100%" fill="#000"/>
<polygon points="-1.11,-15.36 -1.11,-0.64 -13.86,6.72 -26.60,-0.64 -26.60,-15.36 -13.86,-22.72" fill="rgb(80,80,80)" stroke="rgb(110,110,110)" stroke-width="1"/>
<polygon points="26.60,-15.36 26.60,-0.64 13.86,6.72 1.11,-0.64 1.11,-15.36 13.86,-22.72" fill="rgb(220,220,220)" stroke="rgb(250,250,250)" stroke-width="1"/>
<polygon points="54.32,-15.36 54.32,-0.64 41.57,6.72 28.82,-0.64 28.82,-15.36 41.57,-22.72" fill="rgb(80,80,80)" stroke="rgb(110,110,110)" stroke-width="1"/>
<polygon points="82.03,-15.36 82.03,-0.64 69.28,6.72 56.53,-0.64 56.53,-15.36 69.28,-22.72" fill="rgb(220,220,220)" stroke="rgb(250,250,250)" stroke-width="1"/>
<polygon points="12.75,8.64 12.75,23.36 0.00,30.72 -12.75,23.36 -12.75,8.64 -0.00,1.28" fill="rgb(245,245,245)" stroke="rgb(255,255,255)" stroke-width="1"/>
<polygon points="40.46,8.64 40.46,23.36 27.71,30.72 14.96,23.36 14.96,8.64 27.71,1.28" fill="rgb(55,55,55)" stroke="rgb(85,85,85)" stroke-width="1"/>
<polygon points="68.17,8.64 68.17,23.36 55.43,30.72 42.68,23.36 42.68,8.64 55.43,1.28" fill="rgb(245,245,245)" stroke="rgb(255,255,255)" stroke-width="1"/>
<polygon points="-1.11,32.64 -1.11,47.36 -13.86,54.72 -26.60,47.36 -26.60,32.64 -13.86,25.28" fill="rgb(190,190,190)" stroke="rgb(220,220,220)" stroke-width="1"/>
<polygon points="26.60,32.64 26.60,47.36 13.86,54.72 1.11,47.36 1.11,32.64 13.86,25.28" fill="none" stroke="rgb(70,70,70)" stroke-width="1.2"/>
<polygon points="54.32,32.64 54.32,47.36 41.57,54.72 28.82,47.36 28.82,32.64 41.57,25.28" fill="rgb(190,190,190)" stroke="rgb(220,220,220)" stroke-width="1"/>
<polygon points="82.03,32.64 82.03,47.36 69.28,54.72 56.53,47.36 56.53,32.64 69.28,25.28" fill="none" stroke="rgb(70,70,70)" stroke-width="1.2"/>
<polygon points="12.75,56.64 12.75,71.36 0.00,78.72 -12.75,71.36 -12.75,56.64 -0.00,49.28" fill="rgb(140,140,140)" stroke="rgb(170,170,170)" stroke-width="1"/>
<polygon points="40.46,56.64 40.46,71.36 27.71,78.72 14.96,71.36 14.96,56.64 27.71,49.28" fill="none" stroke="rgb(80,80,80)" stroke-width="1.2"/>
<polygon points="68.17,56.64 68.17,71.36 55.43,78.72 42.68,71.36 42.68,56.64 55.43,49.28" fill="rgb(140,140,140)" stroke="rgb(170,170,170)" stroke-width="1"/>
</svg>